<svg width="586" height="367" viewBox="0 0 586 367" fill="none" xmlns="http://www.w3.org/2000/svg">
<ellipse cx="2.01375" cy="2" rx="2.01375" ry="2" fill="white" fill-opacity="0.3"/>
<ellipse cx="138.948" cy="2" rx="2.01375" ry="2" fill="white" fill-opacity="0.3"/>
<ellipse cx="275.883" cy="2" rx="2.01375" ry="2" fill="white" fill-opacity="0.3"/>
<ellipse cx="481.285" cy="2" rx="2.01375" ry="2" fill="white" fill-opacity="0.3"/>
<ellipse cx="36.2476" cy="2" rx="2.01375" ry="2" fill="white" fill-opacity="0.3"/>
<ellipse cx="173.182" cy="2" rx="2.01375" ry="2" fill="white" fill-opacity="0.3"/>
<ellipse cx="310.117" cy="2" rx="2.01375" ry="2" fill="white" fill-opacity="0.3"/>
<ellipse cx="515.519" cy="2" rx="2.01375" ry="2" fill="white" fill-opacity="0.3"/>
<ellipse cx="70.381" cy="2" rx="2.01375" ry="2" fill="white" fill-opacity="0.3"/>
<ellipse cx="207.416" cy="2" rx="2.01375" ry="2" fill="white" fill-opacity="0.3"/>
<ellipse cx="344.35" cy="2" rx="2.01375" ry="2" fill="white" fill-opacity="0.3"/>
<ellipse cx="378.584" cy="2" rx="2.01375" ry="2" fill="white" fill-opacity="0.3"/>
<ellipse cx="549.753" cy="2" rx="2.01375" ry="2" fill="white" fill-opacity="0.3"/>
<ellipse cx="104.715" cy="2" rx="2.01375" ry="2" fill="white" fill-opacity="0.3"/>
<ellipse cx="241.649" cy="2" rx="2.01375" ry="2" fill="white" fill-opacity="0.3"/>
<ellipse cx="412.818" cy="2" rx="2.01375" ry="2" fill="white" fill-opacity="0.3"/>
<ellipse cx="447.052" cy="2" rx="2.01375" ry="2" fill="white" fill-opacity="0.3"/>
<ellipse cx="583.986" cy="2" rx="2.01375" ry="2" fill="white" fill-opacity="0.3"/>
<ellipse cx="2.01375" cy="134" rx="2.01375" ry="2" fill="white" fill-opacity="0.3"/>
<ellipse cx="138.948" cy="134" rx="2.01375" ry="2" fill="white" fill-opacity="0.3"/>
<ellipse cx="275.883" cy="134" rx="2.01375" ry="2" fill="white" fill-opacity="0.3"/>
<ellipse cx="481.285" cy="134" rx="2.01375" ry="2" fill="white" fill-opacity="0.3"/>
<ellipse cx="36.2476" cy="134" rx="2.01375" ry="2" fill="white" fill-opacity="0.3"/>
<ellipse cx="173.182" cy="134" rx="2.01375" ry="2" fill="white" fill-opacity="0.3"/>
<ellipse cx="310.117" cy="134" rx="2.01375" ry="2" fill="white" fill-opacity="0.3"/>
<ellipse cx="515.519" cy="134" rx="2.01375" ry="2" fill="white" fill-opacity="0.3"/>
<ellipse cx="70.381" cy="134" rx="2.01375" ry="2" fill="white" fill-opacity="0.3"/>
<ellipse cx="207.416" cy="134" rx="2.01375" ry="2" fill="white" fill-opacity="0.3"/>
<ellipse cx="344.35" cy="134" rx="2.01375" ry="2" fill="white" fill-opacity="0.3"/>
<ellipse cx="378.584" cy="134" rx="2.01375" ry="2" fill="white" fill-opacity="0.3"/>
<ellipse cx="549.753" cy="134" rx="2.01375" ry="2" fill="white" fill-opacity="0.3"/>
<ellipse cx="104.715" cy="134" rx="2.01375" ry="2" fill="white" fill-opacity="0.3"/>
<ellipse cx="241.649" cy="134" rx="2.01375" ry="2" fill="white" fill-opacity="0.3"/>
<ellipse cx="412.818" cy="134" rx="2.01375" ry="2" fill="white" fill-opacity="0.3"/>
<ellipse cx="447.052" cy="134" rx="2.01375" ry="2" fill="white" fill-opacity="0.3"/>
<ellipse cx="583.986" cy="134" rx="2.01375" ry="2" fill="white" fill-opacity="0.3"/>
<ellipse cx="2.01375" cy="299" rx="2.01375" ry="2" fill="white" fill-opacity="0.3"/>
<ellipse cx="138.948" cy="299" rx="2.01375" ry="2" fill="white" fill-opacity="0.3"/>
<ellipse cx="275.883" cy="299" rx="2.01375" ry="2" fill="white" fill-opacity="0.3"/>
<ellipse cx="481.285" cy="299" rx="2.01375" ry="2" fill="white" fill-opacity="0.3"/>
<ellipse cx="36.2476" cy="299" rx="2.01375" ry="2" fill="white" fill-opacity="0.3"/>
<ellipse cx="173.182" cy="299" rx="2.01375" ry="2" fill="white" fill-opacity="0.3"/>
<ellipse cx="310.117" cy="299" rx="2.01375" ry="2" fill="white" fill-opacity="0.3"/>
<ellipse cx="515.519" cy="299" rx="2.01375" ry="2" fill="white" fill-opacity="0.3"/>
<ellipse cx="70.381" cy="299" rx="2.01375" ry="2" fill="white" fill-opacity="0.3"/>
<ellipse cx="207.416" cy="299" rx="2.01375" ry="2" fill="white" fill-opacity="0.3"/>
<ellipse cx="344.35" cy="299" rx="2.01375" ry="2" fill="white" fill-opacity="0.3"/>
<ellipse cx="378.584" cy="299" rx="2.01375" ry="2" fill="white" fill-opacity="0.3"/>
<ellipse cx="549.753" cy="299" rx="2.01375" ry="2" fill="white" fill-opacity="0.3"/>
<ellipse cx="104.715" cy="299" rx="2.01375" ry="2" fill="white" fill-opacity="0.3"/>
<ellipse cx="241.649" cy="299" rx="2.01375" ry="2" fill="white" fill-opacity="0.3"/>
<ellipse cx="412.818" cy="299" rx="2.01375" ry="2" fill="white" fill-opacity="0.3"/>
<ellipse cx="447.052" cy="299" rx="2.01375" ry="2" fill="white" fill-opacity="0.3"/>
<ellipse cx="583.986" cy="299" rx="2.01375" ry="2" fill="white" fill-opacity="0.3"/>
<ellipse cx="2.01375" cy="68" rx="2.01375" ry="2" fill="white" fill-opacity="0.3"/>
<ellipse cx="138.948" cy="68" rx="2.01375" ry="2" fill="white" fill-opacity="0.3"/>
<ellipse cx="275.883" cy="68" rx="2.01375" ry="2" fill="white" fill-opacity="0.3"/>
<ellipse cx="481.285" cy="68" rx="2.01375" ry="2" fill="white" fill-opacity="0.3"/>
<ellipse cx="36.2476" cy="68" rx="2.01375" ry="2" fill="white" fill-opacity="0.3"/>
<ellipse cx="173.182" cy="68" rx="2.01375" ry="2" fill="white" fill-opacity="0.3"/>
<ellipse cx="310.117" cy="68" rx="2.01375" ry="2" fill="white" fill-opacity="0.3"/>
<ellipse cx="515.519" cy="68" rx="2.01375" ry="2" fill="white" fill-opacity="0.3"/>
<ellipse cx="70.381" cy="68" rx="2.01375" ry="2" fill="white" fill-opacity="0.3"/>
<ellipse cx="207.416" cy="68" rx="2.01375" ry="2" fill="white" fill-opacity="0.3"/>
<ellipse cx="344.35" cy="68" rx="2.01375" ry="2" fill="white" fill-opacity="0.3"/>
<ellipse cx="378.584" cy="68" rx="2.01375" ry="2" fill="white" fill-opacity="0.3"/>
<ellipse cx="549.753" cy="68" rx="2.01375" ry="2" fill="white" fill-opacity="0.3"/>
<ellipse cx="104.715" cy="68" rx="2.01375" ry="2" fill="white" fill-opacity="0.3"/>
<ellipse cx="241.649" cy="68" rx="2.01375" ry="2" fill="white" fill-opacity="0.3"/>
<ellipse cx="412.818" cy="68" rx="2.01375" ry="2" fill="white" fill-opacity="0.3"/>
<ellipse cx="447.052" cy="68" rx="2.01375" ry="2" fill="white" fill-opacity="0.3"/>
<ellipse cx="583.986" cy="68" rx="2.01375" ry="2" fill="white" fill-opacity="0.3"/>
<ellipse cx="2.01375" cy="200" rx="2.01375" ry="2" fill="white" fill-opacity="0.3"/>
<ellipse cx="138.948" cy="200" rx="2.01375" ry="2" fill="white" fill-opacity="0.3"/>
<ellipse cx="275.883" cy="200" rx="2.01375" ry="2" fill="white" fill-opacity="0.3"/>
<ellipse cx="481.285" cy="200" rx="2.01375" ry="2" fill="white" fill-opacity="0.3"/>
<ellipse cx="36.2476" cy="200" rx="2.01375" ry="2" fill="white" fill-opacity="0.3"/>
<ellipse cx="173.182" cy="200" rx="2.01375" ry="2" fill="white" fill-opacity="0.3"/>
<ellipse cx="310.117" cy="200" rx="2.01375" ry="2" fill="white" fill-opacity="0.3"/>
<ellipse cx="515.519" cy="200" rx="2.01375" ry="2" fill="white" fill-opacity="0.3"/>
<ellipse cx="70.381" cy="200" rx="2.01375" ry="2" fill="white" fill-opacity="0.3"/>
<ellipse cx="207.416" cy="200" rx="2.01375" ry="2" fill="white" fill-opacity="0.3"/>
<ellipse cx="344.35" cy="200" rx="2.01375" ry="2" fill="white" fill-opacity="0.3"/>
<ellipse cx="378.584" cy="200" rx="2.01375" ry="2" fill="white" fill-opacity="0.3"/>
<ellipse cx="549.753" cy="200" rx="2.01375" ry="2" fill="white" fill-opacity="0.3"/>
<ellipse cx="104.715" cy="200" rx="2.01375" ry="2" fill="white" fill-opacity="0.3"/>
<ellipse cx="241.649" cy="200" rx="2.01375" ry="2" fill="white" fill-opacity="0.3"/>
<ellipse cx="412.818" cy="200" rx="2.01375" ry="2" fill="white" fill-opacity="0.3"/>
<ellipse cx="447.052" cy="200" rx="2.01375" ry="2" fill="white" fill-opacity="0.3"/>
<ellipse cx="583.986" cy="200" rx="2.01375" ry="2" fill="white" fill-opacity="0.3"/>
<ellipse cx="2.01375" cy="365" rx="2.01375" ry="2" fill="white" fill-opacity="0.3"/>
<ellipse cx="138.948" cy="365" rx="2.01375" ry="2" fill="white" fill-opacity="0.3"/>
<ellipse cx="275.883" cy="365" rx="2.01375" ry="2" fill="white" fill-opacity="0.3"/>
<ellipse cx="481.285" cy="365" rx="2.01375" ry="2" fill="white" fill-opacity="0.3"/>
<ellipse cx="36.2476" cy="365" rx="2.01375" ry="2" fill="white" fill-opacity="0.3"/>
<ellipse cx="173.182" cy="365" rx="2.01375" ry="2" fill="white" fill-opacity="0.3"/>
<ellipse cx="310.117" cy="365" rx="2.01375" ry="2" fill="white" fill-opacity="0.3"/>
<ellipse cx="515.519" cy="365" rx="2.01375" ry="2" fill="white" fill-opacity="0.3"/>
<ellipse cx="70.381" cy="365" rx="2.01375" ry="2" fill="white" fill-opacity="0.3"/>
<ellipse cx="207.416" cy="365" rx="2.01375" ry="2" fill="white" fill-opacity="0.3"/>
<ellipse cx="344.35" cy="365" rx="2.01375" ry="2" fill="white" fill-opacity="0.3"/>
<ellipse cx="378.584" cy="365" rx="2.01375" ry="2" fill="white" fill-opacity="0.3"/>
<ellipse cx="549.753" cy="365" rx="2.01375" ry="2" fill="white" fill-opacity="0.3"/>
<ellipse cx="104.715" cy="365" rx="2.01375" ry="2" fill="white" fill-opacity="0.3"/>
<ellipse cx="241.649" cy="365" rx="2.01375" ry="2" fill="white" fill-opacity="0.3"/>
<ellipse cx="412.818" cy="365" rx="2.01375" ry="2" fill="white" fill-opacity="0.3"/>
<ellipse cx="447.052" cy="365" rx="2.01375" ry="2" fill="white" fill-opacity="0.3"/>
<ellipse cx="583.986" cy="365" rx="2.01375" ry="2" fill="white" fill-opacity="0.3"/>
<ellipse cx="2.01375" cy="35" rx="2.01375" ry="2" fill="white" fill-opacity="0.3"/>
<ellipse cx="138.948" cy="35" rx="2.01375" ry="2" fill="white" fill-opacity="0.3"/>
<ellipse cx="275.883" cy="35" rx="2.01375" ry="2" fill="white" fill-opacity="0.3"/>
<ellipse cx="481.285" cy="35" rx="2.01375" ry="2" fill="white" fill-opacity="0.3"/>
<ellipse cx="36.2476" cy="35" rx="2.01375" ry="2" fill="white" fill-opacity="0.3"/>
<ellipse cx="173.182" cy="35" rx="2.01375" ry="2" fill="white" fill-opacity="0.3"/>
<ellipse cx="310.117" cy="35" rx="2.01375" ry="2" fill="white" fill-opacity="0.3"/>
<ellipse cx="515.519" cy="35" rx="2.01375" ry="2" fill="white" fill-opacity="0.3"/>
<ellipse cx="70.381" cy="35" rx="2.01375" ry="2" fill="white" fill-opacity="0.3"/>
<ellipse cx="207.416" cy="35" rx="2.01375" ry="2" fill="white" fill-opacity="0.3"/>
<ellipse cx="344.35" cy="35" rx="2.01375" ry="2" fill="white" fill-opacity="0.3"/>
<ellipse cx="378.584" cy="35" rx="2.01375" ry="2" fill="white" fill-opacity="0.3"/>
<ellipse cx="549.753" cy="35" rx="2.01375" ry="2" fill="white" fill-opacity="0.3"/>
<ellipse cx="104.715" cy="35" rx="2.01375" ry="2" fill="white" fill-opacity="0.3"/>
<ellipse cx="241.649" cy="35" rx="2.01375" ry="2" fill="white" fill-opacity="0.3"/>
<ellipse cx="412.818" cy="35" rx="2.01375" ry="2" fill="white" fill-opacity="0.3"/>
<ellipse cx="447.052" cy="35" rx="2.01375" ry="2" fill="white" fill-opacity="0.3"/>
<ellipse cx="583.986" cy="35" rx="2.01375" ry="2" fill="white" fill-opacity="0.3"/>
<ellipse cx="2.01375" cy="167" rx="2.01375" ry="2" fill="white" fill-opacity="0.3"/>
<ellipse cx="138.948" cy="167" rx="2.01375" ry="2" fill="white" fill-opacity="0.3"/>
<ellipse cx="275.883" cy="167" rx="2.01375" ry="2" fill="white" fill-opacity="0.3"/>
<ellipse cx="481.285" cy="167" rx="2.01375" ry="2" fill="white" fill-opacity="0.3"/>
<ellipse cx="36.2476" cy="167" rx="2.01375" ry="2" fill="white" fill-opacity="0.3"/>
<ellipse cx="173.182" cy="167" rx="2.01375" ry="2" fill="white" fill-opacity="0.3"/>
<ellipse cx="310.117" cy="167" rx="2.01375" ry="2" fill="white" fill-opacity="0.3"/>
<ellipse cx="515.519" cy="167" rx="2.01375" ry="2" fill="white" fill-opacity="0.3"/>
<ellipse cx="70.381" cy="167" rx="2.01375" ry="2" fill="white" fill-opacity="0.3"/>
<ellipse cx="207.416" cy="167" rx="2.01375" ry="2" fill="white" fill-opacity="0.3"/>
<ellipse cx="344.35" cy="167" rx="2.01375" ry="2" fill="white" fill-opacity="0.3"/>
<ellipse cx="378.584" cy="167" rx="2.01375" ry="2" fill="white" fill-opacity="0.3"/>
<ellipse cx="549.753" cy="167" rx="2.01375" ry="2" fill="white" fill-opacity="0.3"/>
<ellipse cx="104.715" cy="167" rx="2.01375" ry="2" fill="white" fill-opacity="0.3"/>
<ellipse cx="241.649" cy="167" rx="2.01375" ry="2" fill="white" fill-opacity="0.3"/>
<ellipse cx="412.818" cy="167" rx="2.01375" ry="2" fill="white" fill-opacity="0.3"/>
<ellipse cx="447.052" cy="167" rx="2.01375" ry="2" fill="white" fill-opacity="0.3"/>
<ellipse cx="583.986" cy="167" rx="2.01375" ry="2" fill="white" fill-opacity="0.3"/>
<ellipse cx="2.01375" cy="332" rx="2.01375" ry="2" fill="white" fill-opacity="0.3"/>
<ellipse cx="138.948" cy="332" rx="2.01375" ry="2" fill="white" fill-opacity="0.3"/>
<ellipse cx="275.883" cy="332" rx="2.01375" ry="2" fill="white" fill-opacity="0.3"/>
<ellipse cx="481.285" cy="332" rx="2.01375" ry="2" fill="white" fill-opacity="0.3"/>
<ellipse cx="36.2476" cy="332" rx="2.01375" ry="2" fill="white" fill-opacity="0.3"/>
<ellipse cx="173.182" cy="332" rx="2.01375" ry="2" fill="white" fill-opacity="0.3"/>
<ellipse cx="310.117" cy="332" rx="2.01375" ry="2" fill="white" fill-opacity="0.3"/>
<ellipse cx="515.519" cy="332" rx="2.01375" ry="2" fill="white" fill-opacity="0.3"/>
<ellipse cx="70.381" cy="332" rx="2.01375" ry="2" fill="white" fill-opacity="0.3"/>
<ellipse cx="207.416" cy="332" rx="2.01375" ry="2" fill="white" fill-opacity="0.3"/>
<ellipse cx="344.35" cy="332" rx="2.01375" ry="2" fill="white" fill-opacity="0.3"/>
<ellipse cx="378.584" cy="332" rx="2.01375" ry="2" fill="white" fill-opacity="0.3"/>
<ellipse cx="549.753" cy="332" rx="2.01375" ry="2" fill="white" fill-opacity="0.3"/>
<ellipse cx="104.715" cy="332" rx="2.01375" ry="2" fill="white" fill-opacity="0.3"/>
<ellipse cx="241.649" cy="332" rx="2.01375" ry="2" fill="white" fill-opacity="0.3"/>
<ellipse cx="412.818" cy="332" rx="2.01375" ry="2" fill="white" fill-opacity="0.3"/>
<ellipse cx="447.052" cy="332" rx="2.01375" ry="2" fill="white" fill-opacity="0.3"/>
<ellipse cx="583.986" cy="332" rx="2.01375" ry="2" fill="white" fill-opacity="0.3"/>
<ellipse cx="2.01375" cy="101" rx="2.01375" ry="2" fill="white" fill-opacity="0.3"/>
<ellipse cx="138.948" cy="101" rx="2.01375" ry="2" fill="white" fill-opacity="0.3"/>
<ellipse cx="275.883" cy="101" rx="2.01375" ry="2" fill="white" fill-opacity="0.3"/>
<ellipse cx="481.285" cy="101" rx="2.01375" ry="2" fill="white" fill-opacity="0.3"/>
<ellipse cx="36.2476" cy="101" rx="2.01375" ry="2" fill="white" fill-opacity="0.3"/>
<ellipse cx="173.182" cy="101" rx="2.01375" ry="2" fill="white" fill-opacity="0.3"/>
<ellipse cx="310.117" cy="101" rx="2.01375" ry="2" fill="white" fill-opacity="0.3"/>
<ellipse cx="515.519" cy="101" rx="2.01375" ry="2" fill="white" fill-opacity="0.3"/>
<ellipse cx="70.381" cy="101" rx="2.01375" ry="2" fill="white" fill-opacity="0.3"/>
<ellipse cx="207.416" cy="101" rx="2.01375" ry="2" fill="white" fill-opacity="0.3"/>
<ellipse cx="344.35" cy="101" rx="2.01375" ry="2" fill="white" fill-opacity="0.3"/>
<ellipse cx="378.584" cy="101" rx="2.01375" ry="2" fill="white" fill-opacity="0.3"/>
<ellipse cx="549.753" cy="101" rx="2.01375" ry="2" fill="white" fill-opacity="0.3"/>
<ellipse cx="104.715" cy="101" rx="2.01375" ry="2" fill="white" fill-opacity="0.3"/>
<ellipse cx="241.649" cy="101" rx="2.01375" ry="2" fill="white" fill-opacity="0.3"/>
<ellipse cx="412.818" cy="101" rx="2.01375" ry="2" fill="white" fill-opacity="0.3"/>
<ellipse cx="447.052" cy="101" rx="2.01375" ry="2" fill="white" fill-opacity="0.3"/>
<ellipse cx="583.986" cy="101" rx="2.01375" ry="2" fill="white" fill-opacity="0.3"/>
<ellipse cx="2.01375" cy="266" rx="2.01375" ry="2" fill="white" fill-opacity="0.3"/>
<ellipse cx="138.948" cy="266" rx="2.01375" ry="2" fill="white" fill-opacity="0.3"/>
<ellipse cx="275.883" cy="266" rx="2.01375" ry="2" fill="white" fill-opacity="0.3"/>
<ellipse cx="481.285" cy="266" rx="2.01375" ry="2" fill="white" fill-opacity="0.3"/>
<ellipse cx="36.2476" cy="266" rx="2.01375" ry="2" fill="white" fill-opacity="0.3"/>
<ellipse cx="173.182" cy="266" rx="2.01375" ry="2" fill="white" fill-opacity="0.3"/>
<ellipse cx="310.117" cy="266" rx="2.01375" ry="2" fill="white" fill-opacity="0.3"/>
<ellipse cx="515.519" cy="266" rx="2.01375" ry="2" fill="white" fill-opacity="0.3"/>
<ellipse cx="70.381" cy="266" rx="2.01375" ry="2" fill="white" fill-opacity="0.3"/>
<ellipse cx="207.416" cy="266" rx="2.01375" ry="2" fill="white" fill-opacity="0.3"/>
<ellipse cx="344.35" cy="266" rx="2.01375" ry="2" fill="white" fill-opacity="0.3"/>
<ellipse cx="378.584" cy="266" rx="2.01375" ry="2" fill="white" fill-opacity="0.3"/>
<ellipse cx="549.753" cy="266" rx="2.01375" ry="2" fill="white" fill-opacity="0.3"/>
<ellipse cx="104.715" cy="266" rx="2.01375" ry="2" fill="white" fill-opacity="0.3"/>
<ellipse cx="241.649" cy="266" rx="2.01375" ry="2" fill="white" fill-opacity="0.3"/>
<ellipse cx="412.818" cy="266" rx="2.01375" ry="2" fill="white" fill-opacity="0.3"/>
<ellipse cx="447.052" cy="266" rx="2.01375" ry="2" fill="white" fill-opacity="0.3"/>
<ellipse cx="583.986" cy="266" rx="2.01375" ry="2" fill="white" fill-opacity="0.3"/>
<ellipse cx="2.01375" cy="233" rx="2.01375" ry="2" fill="white" fill-opacity="0.3"/>
<ellipse cx="138.948" cy="233" rx="2.01375" ry="2" fill="white" fill-opacity="0.3"/>
<ellipse cx="275.883" cy="233" rx="2.01375" ry="2" fill="white" fill-opacity="0.3"/>
<ellipse cx="481.285" cy="233" rx="2.01375" ry="2" fill="white" fill-opacity="0.3"/>
<ellipse cx="36.2476" cy="233" rx="2.01375" ry="2" fill="white" fill-opacity="0.3"/>
<ellipse cx="173.182" cy="233" rx="2.01375" ry="2" fill="white" fill-opacity="0.3"/>
<ellipse cx="310.117" cy="233" rx="2.01375" ry="2" fill="white" fill-opacity="0.3"/>
<ellipse cx="515.519" cy="233" rx="2.01375" ry="2" fill="white" fill-opacity="0.3"/>
<ellipse cx="70.381" cy="233" rx="2.01375" ry="2" fill="white" fill-opacity="0.3"/>
<ellipse cx="207.416" cy="233" rx="2.01375" ry="2" fill="white" fill-opacity="0.3"/>
<ellipse cx="344.35" cy="233" rx="2.01375" ry="2" fill="white" fill-opacity="0.3"/>
<ellipse cx="378.584" cy="233" rx="2.01375" ry="2" fill="white" fill-opacity="0.3"/>
<ellipse cx="549.753" cy="233" rx="2.01375" ry="2" fill="white" fill-opacity="0.3"/>
<ellipse cx="104.715" cy="233" rx="2.01375" ry="2" fill="white" fill-opacity="0.3"/>
<ellipse cx="241.649" cy="233" rx="2.01375" ry="2" fill="white" fill-opacity="0.3"/>
<ellipse cx="412.818" cy="233" rx="2.01375" ry="2" fill="white" fill-opacity="0.3"/>
<ellipse cx="447.052" cy="233" rx="2.01375" ry="2" fill="white" fill-opacity="0.3"/>
<ellipse cx="583.986" cy="233" rx="2.01375" ry="2" fill="white" fill-opacity="0.3"/>
</svg>
