<svg width="367" height="586" viewBox="0 0 367 586" fill="none" xmlns="http://www.w3.org/2000/svg">
<ellipse cx="365" cy="2.01375" rx="2.01375" ry="2" transform="rotate(90 365 2.01375)" fill="black" fill-opacity="0.4"/>
<ellipse cx="365" cy="138.949" rx="2.01375" ry="2" transform="rotate(90 365 138.949)" fill="black" fill-opacity="0.4"/>
<ellipse cx="365" cy="275.883" rx="2.01375" ry="2" transform="rotate(90 365 275.883)" fill="black" fill-opacity="0.4"/>
<ellipse cx="365" cy="481.285" rx="2.01375" ry="2" transform="rotate(90 365 481.285)" fill="black" fill-opacity="0.4"/>
<ellipse cx="365" cy="36.2474" rx="2.01375" ry="2" transform="rotate(90 365 36.2474)" fill="black" fill-opacity="0.4"/>
<ellipse cx="365" cy="173.182" rx="2.01375" ry="2" transform="rotate(90 365 173.182)" fill="black" fill-opacity="0.4"/>
<ellipse cx="365" cy="310.117" rx="2.01375" ry="2" transform="rotate(90 365 310.117)" fill="black" fill-opacity="0.4"/>
<ellipse cx="365" cy="515.519" rx="2.01375" ry="2" transform="rotate(90 365 515.519)" fill="black" fill-opacity="0.4"/>
<ellipse cx="365" cy="70.481" rx="2.01375" ry="2" transform="rotate(90 365 70.481)" fill="black" fill-opacity="0.4"/>
<ellipse cx="365" cy="207.416" rx="2.01375" ry="2" transform="rotate(90 365 207.416)" fill="black" fill-opacity="0.4"/>
<ellipse cx="365" cy="344.35" rx="2.01375" ry="2" transform="rotate(90 365 344.35)" fill="black" fill-opacity="0.4"/>
<ellipse cx="365" cy="378.584" rx="2.01375" ry="2" transform="rotate(90 365 378.584)" fill="black" fill-opacity="0.4"/>
<ellipse cx="365" cy="549.753" rx="2.01375" ry="2" transform="rotate(90 365 549.753)" fill="black" fill-opacity="0.4"/>
<ellipse cx="365" cy="104.715" rx="2.01375" ry="2" transform="rotate(90 365 104.715)" fill="black" fill-opacity="0.4"/>
<ellipse cx="365" cy="241.649" rx="2.01375" ry="2" transform="rotate(90 365 241.649)" fill="black" fill-opacity="0.4"/>
<ellipse cx="365" cy="412.818" rx="2.01375" ry="2" transform="rotate(90 365 412.818)" fill="black" fill-opacity="0.4"/>
<ellipse cx="365" cy="447.052" rx="2.01375" ry="2" transform="rotate(90 365 447.052)" fill="black" fill-opacity="0.4"/>
<ellipse cx="365" cy="583.986" rx="2.01375" ry="2" transform="rotate(90 365 583.986)" fill="black" fill-opacity="0.4"/>
<ellipse cx="233" cy="2.01375" rx="2.01375" ry="2" transform="rotate(90 233 2.01375)" fill="black" fill-opacity="0.4"/>
<ellipse cx="233" cy="138.949" rx="2.01375" ry="2" transform="rotate(90 233 138.949)" fill="black" fill-opacity="0.4"/>
<ellipse cx="233" cy="275.883" rx="2.01375" ry="2" transform="rotate(90 233 275.883)" fill="black" fill-opacity="0.4"/>
<ellipse cx="233" cy="481.285" rx="2.01375" ry="2" transform="rotate(90 233 481.285)" fill="black" fill-opacity="0.4"/>
<ellipse cx="233" cy="36.2474" rx="2.01375" ry="2" transform="rotate(90 233 36.2474)" fill="black" fill-opacity="0.4"/>
<ellipse cx="233" cy="173.182" rx="2.01375" ry="2" transform="rotate(90 233 173.182)" fill="black" fill-opacity="0.4"/>
<ellipse cx="233" cy="310.117" rx="2.01375" ry="2" transform="rotate(90 233 310.117)" fill="black" fill-opacity="0.4"/>
<ellipse cx="233" cy="515.519" rx="2.01375" ry="2" transform="rotate(90 233 515.519)" fill="black" fill-opacity="0.4"/>
<ellipse cx="233" cy="70.481" rx="2.01375" ry="2" transform="rotate(90 233 70.481)" fill="black" fill-opacity="0.4"/>
<ellipse cx="233" cy="207.416" rx="2.01375" ry="2" transform="rotate(90 233 207.416)" fill="black" fill-opacity="0.4"/>
<ellipse cx="233" cy="344.35" rx="2.01375" ry="2" transform="rotate(90 233 344.35)" fill="black" fill-opacity="0.4"/>
<ellipse cx="233" cy="378.584" rx="2.01375" ry="2" transform="rotate(90 233 378.584)" fill="black" fill-opacity="0.4"/>
<ellipse cx="233" cy="549.753" rx="2.01375" ry="2" transform="rotate(90 233 549.753)" fill="black" fill-opacity="0.4"/>
<ellipse cx="233" cy="104.715" rx="2.01375" ry="2" transform="rotate(90 233 104.715)" fill="black" fill-opacity="0.4"/>
<ellipse cx="233" cy="241.649" rx="2.01375" ry="2" transform="rotate(90 233 241.649)" fill="black" fill-opacity="0.4"/>
<ellipse cx="233" cy="412.818" rx="2.01375" ry="2" transform="rotate(90 233 412.818)" fill="black" fill-opacity="0.4"/>
<ellipse cx="233" cy="447.052" rx="2.01375" ry="2" transform="rotate(90 233 447.052)" fill="black" fill-opacity="0.4"/>
<ellipse cx="233" cy="583.986" rx="2.01375" ry="2" transform="rotate(90 233 583.986)" fill="black" fill-opacity="0.4"/>
<ellipse cx="68" cy="2.01375" rx="2.01375" ry="2" transform="rotate(90 68 2.01375)" fill="black" fill-opacity="0.4"/>
<ellipse cx="68" cy="138.949" rx="2.01375" ry="2" transform="rotate(90 68 138.949)" fill="black" fill-opacity="0.4"/>
<ellipse cx="68" cy="275.883" rx="2.01375" ry="2" transform="rotate(90 68 275.883)" fill="black" fill-opacity="0.4"/>
<ellipse cx="68" cy="481.285" rx="2.01375" ry="2" transform="rotate(90 68 481.285)" fill="black" fill-opacity="0.4"/>
<ellipse cx="68" cy="36.2474" rx="2.01375" ry="2" transform="rotate(90 68 36.2474)" fill="black" fill-opacity="0.4"/>
<ellipse cx="68" cy="173.182" rx="2.01375" ry="2" transform="rotate(90 68 173.182)" fill="black" fill-opacity="0.4"/>
<ellipse cx="68" cy="310.117" rx="2.01375" ry="2" transform="rotate(90 68 310.117)" fill="black" fill-opacity="0.4"/>
<ellipse cx="68" cy="515.519" rx="2.01375" ry="2" transform="rotate(90 68 515.519)" fill="black" fill-opacity="0.4"/>
<ellipse cx="68" cy="70.481" rx="2.01375" ry="2" transform="rotate(90 68 70.481)" fill="black" fill-opacity="0.4"/>
<ellipse cx="68" cy="207.416" rx="2.01375" ry="2" transform="rotate(90 68 207.416)" fill="black" fill-opacity="0.4"/>
<ellipse cx="68" cy="344.35" rx="2.01375" ry="2" transform="rotate(90 68 344.35)" fill="black" fill-opacity="0.4"/>
<ellipse cx="68" cy="378.584" rx="2.01375" ry="2" transform="rotate(90 68 378.584)" fill="black" fill-opacity="0.4"/>
<ellipse cx="68" cy="549.753" rx="2.01375" ry="2" transform="rotate(90 68 549.753)" fill="black" fill-opacity="0.4"/>
<ellipse cx="68" cy="104.715" rx="2.01375" ry="2" transform="rotate(90 68 104.715)" fill="black" fill-opacity="0.4"/>
<ellipse cx="68" cy="241.649" rx="2.01375" ry="2" transform="rotate(90 68 241.649)" fill="black" fill-opacity="0.4"/>
<ellipse cx="68" cy="412.818" rx="2.01375" ry="2" transform="rotate(90 68 412.818)" fill="black" fill-opacity="0.4"/>
<ellipse cx="68" cy="447.052" rx="2.01375" ry="2" transform="rotate(90 68 447.052)" fill="black" fill-opacity="0.4"/>
<ellipse cx="68" cy="583.986" rx="2.01375" ry="2" transform="rotate(90 68 583.986)" fill="black" fill-opacity="0.4"/>
<ellipse cx="299" cy="2.01375" rx="2.01375" ry="2" transform="rotate(90 299 2.01375)" fill="black" fill-opacity="0.4"/>
<ellipse cx="299" cy="138.949" rx="2.01375" ry="2" transform="rotate(90 299 138.949)" fill="black" fill-opacity="0.4"/>
<ellipse cx="299" cy="275.883" rx="2.01375" ry="2" transform="rotate(90 299 275.883)" fill="black" fill-opacity="0.4"/>
<ellipse cx="299" cy="481.285" rx="2.01375" ry="2" transform="rotate(90 299 481.285)" fill="black" fill-opacity="0.4"/>
<ellipse cx="299" cy="36.2474" rx="2.01375" ry="2" transform="rotate(90 299 36.2474)" fill="black" fill-opacity="0.4"/>
<ellipse cx="299" cy="173.182" rx="2.01375" ry="2" transform="rotate(90 299 173.182)" fill="black" fill-opacity="0.4"/>
<ellipse cx="299" cy="310.117" rx="2.01375" ry="2" transform="rotate(90 299 310.117)" fill="black" fill-opacity="0.4"/>
<ellipse cx="299" cy="515.519" rx="2.01375" ry="2" transform="rotate(90 299 515.519)" fill="black" fill-opacity="0.4"/>
<ellipse cx="299" cy="70.481" rx="2.01375" ry="2" transform="rotate(90 299 70.481)" fill="black" fill-opacity="0.4"/>
<ellipse cx="299" cy="207.416" rx="2.01375" ry="2" transform="rotate(90 299 207.416)" fill="black" fill-opacity="0.4"/>
<ellipse cx="299" cy="344.35" rx="2.01375" ry="2" transform="rotate(90 299 344.35)" fill="black" fill-opacity="0.4"/>
<ellipse cx="299" cy="378.584" rx="2.01375" ry="2" transform="rotate(90 299 378.584)" fill="black" fill-opacity="0.4"/>
<ellipse cx="299" cy="549.753" rx="2.01375" ry="2" transform="rotate(90 299 549.753)" fill="black" fill-opacity="0.4"/>
<ellipse cx="299" cy="104.715" rx="2.01375" ry="2" transform="rotate(90 299 104.715)" fill="black" fill-opacity="0.4"/>
<ellipse cx="299" cy="241.649" rx="2.01375" ry="2" transform="rotate(90 299 241.649)" fill="black" fill-opacity="0.4"/>
<ellipse cx="299" cy="412.818" rx="2.01375" ry="2" transform="rotate(90 299 412.818)" fill="black" fill-opacity="0.4"/>
<ellipse cx="299" cy="447.052" rx="2.01375" ry="2" transform="rotate(90 299 447.052)" fill="black" fill-opacity="0.4"/>
<ellipse cx="299" cy="583.986" rx="2.01375" ry="2" transform="rotate(90 299 583.986)" fill="black" fill-opacity="0.4"/>
<ellipse cx="167" cy="2.01375" rx="2.01375" ry="2" transform="rotate(90 167 2.01375)" fill="black" fill-opacity="0.4"/>
<ellipse cx="167" cy="138.949" rx="2.01375" ry="2" transform="rotate(90 167 138.949)" fill="black" fill-opacity="0.4"/>
<ellipse cx="167" cy="275.883" rx="2.01375" ry="2" transform="rotate(90 167 275.883)" fill="black" fill-opacity="0.4"/>
<ellipse cx="167" cy="481.285" rx="2.01375" ry="2" transform="rotate(90 167 481.285)" fill="black" fill-opacity="0.4"/>
<ellipse cx="167" cy="36.2474" rx="2.01375" ry="2" transform="rotate(90 167 36.2474)" fill="black" fill-opacity="0.4"/>
<ellipse cx="167" cy="173.182" rx="2.01375" ry="2" transform="rotate(90 167 173.182)" fill="black" fill-opacity="0.4"/>
<ellipse cx="167" cy="310.117" rx="2.01375" ry="2" transform="rotate(90 167 310.117)" fill="black" fill-opacity="0.4"/>
<ellipse cx="167" cy="515.519" rx="2.01375" ry="2" transform="rotate(90 167 515.519)" fill="black" fill-opacity="0.4"/>
<ellipse cx="167" cy="70.481" rx="2.01375" ry="2" transform="rotate(90 167 70.481)" fill="black" fill-opacity="0.4"/>
<ellipse cx="167" cy="207.416" rx="2.01375" ry="2" transform="rotate(90 167 207.416)" fill="black" fill-opacity="0.4"/>
<ellipse cx="167" cy="344.35" rx="2.01375" ry="2" transform="rotate(90 167 344.35)" fill="black" fill-opacity="0.4"/>
<ellipse cx="167" cy="378.584" rx="2.01375" ry="2" transform="rotate(90 167 378.584)" fill="black" fill-opacity="0.4"/>
<ellipse cx="167" cy="549.753" rx="2.01375" ry="2" transform="rotate(90 167 549.753)" fill="black" fill-opacity="0.4"/>
<ellipse cx="167" cy="104.715" rx="2.01375" ry="2" transform="rotate(90 167 104.715)" fill="black" fill-opacity="0.4"/>
<ellipse cx="167" cy="241.649" rx="2.01375" ry="2" transform="rotate(90 167 241.649)" fill="black" fill-opacity="0.4"/>
<ellipse cx="167" cy="412.818" rx="2.01375" ry="2" transform="rotate(90 167 412.818)" fill="black" fill-opacity="0.4"/>
<ellipse cx="167" cy="447.052" rx="2.01375" ry="2" transform="rotate(90 167 447.052)" fill="black" fill-opacity="0.4"/>
<ellipse cx="167" cy="583.986" rx="2.01375" ry="2" transform="rotate(90 167 583.986)" fill="black" fill-opacity="0.4"/>
<ellipse cx="2" cy="2.01375" rx="2.01375" ry="2" transform="rotate(90 2 2.01375)" fill="black" fill-opacity="0.4"/>
<ellipse cx="2" cy="138.949" rx="2.01375" ry="2" transform="rotate(90 2 138.949)" fill="black" fill-opacity="0.4"/>
<ellipse cx="2" cy="275.883" rx="2.01375" ry="2" transform="rotate(90 2 275.883)" fill="black" fill-opacity="0.4"/>
<ellipse cx="2" cy="481.285" rx="2.01375" ry="2" transform="rotate(90 2 481.285)" fill="black" fill-opacity="0.4"/>
<ellipse cx="2" cy="36.2474" rx="2.01375" ry="2" transform="rotate(90 2 36.2474)" fill="black" fill-opacity="0.4"/>
<ellipse cx="2" cy="173.182" rx="2.01375" ry="2" transform="rotate(90 2 173.182)" fill="black" fill-opacity="0.4"/>
<ellipse cx="2" cy="310.117" rx="2.01375" ry="2" transform="rotate(90 2 310.117)" fill="black" fill-opacity="0.4"/>
<ellipse cx="2" cy="515.519" rx="2.01375" ry="2" transform="rotate(90 2 515.519)" fill="black" fill-opacity="0.4"/>
<ellipse cx="2" cy="70.481" rx="2.01375" ry="2" transform="rotate(90 2 70.481)" fill="black" fill-opacity="0.4"/>
<ellipse cx="2" cy="207.416" rx="2.01375" ry="2" transform="rotate(90 2 207.416)" fill="black" fill-opacity="0.4"/>
<ellipse cx="2" cy="344.35" rx="2.01375" ry="2" transform="rotate(90 2 344.35)" fill="black" fill-opacity="0.4"/>
<ellipse cx="2" cy="378.584" rx="2.01375" ry="2" transform="rotate(90 2 378.584)" fill="black" fill-opacity="0.4"/>
<ellipse cx="2" cy="549.753" rx="2.01375" ry="2" transform="rotate(90 2 549.753)" fill="black" fill-opacity="0.4"/>
<ellipse cx="2" cy="104.715" rx="2.01375" ry="2" transform="rotate(90 2 104.715)" fill="black" fill-opacity="0.4"/>
<ellipse cx="2" cy="241.649" rx="2.01375" ry="2" transform="rotate(90 2 241.649)" fill="black" fill-opacity="0.4"/>
<ellipse cx="2" cy="412.818" rx="2.01375" ry="2" transform="rotate(90 2 412.818)" fill="black" fill-opacity="0.4"/>
<ellipse cx="2" cy="447.052" rx="2.01375" ry="2" transform="rotate(90 2 447.052)" fill="black" fill-opacity="0.4"/>
<ellipse cx="2" cy="583.986" rx="2.01375" ry="2" transform="rotate(90 2 583.986)" fill="black" fill-opacity="0.4"/>
<ellipse cx="332" cy="2.01375" rx="2.01375" ry="2" transform="rotate(90 332 2.01375)" fill="black" fill-opacity="0.4"/>
<ellipse cx="332" cy="138.949" rx="2.01375" ry="2" transform="rotate(90 332 138.949)" fill="black" fill-opacity="0.4"/>
<ellipse cx="332" cy="275.883" rx="2.01375" ry="2" transform="rotate(90 332 275.883)" fill="black" fill-opacity="0.4"/>
<ellipse cx="332" cy="481.285" rx="2.01375" ry="2" transform="rotate(90 332 481.285)" fill="black" fill-opacity="0.4"/>
<ellipse cx="332" cy="36.2474" rx="2.01375" ry="2" transform="rotate(90 332 36.2474)" fill="black" fill-opacity="0.4"/>
<ellipse cx="332" cy="173.182" rx="2.01375" ry="2" transform="rotate(90 332 173.182)" fill="black" fill-opacity="0.4"/>
<ellipse cx="332" cy="310.117" rx="2.01375" ry="2" transform="rotate(90 332 310.117)" fill="black" fill-opacity="0.4"/>
<ellipse cx="332" cy="515.519" rx="2.01375" ry="2" transform="rotate(90 332 515.519)" fill="black" fill-opacity="0.4"/>
<ellipse cx="332" cy="70.481" rx="2.01375" ry="2" transform="rotate(90 332 70.481)" fill="black" fill-opacity="0.4"/>
<ellipse cx="332" cy="207.416" rx="2.01375" ry="2" transform="rotate(90 332 207.416)" fill="black" fill-opacity="0.4"/>
<ellipse cx="332" cy="344.35" rx="2.01375" ry="2" transform="rotate(90 332 344.35)" fill="black" fill-opacity="0.4"/>
<ellipse cx="332" cy="378.584" rx="2.01375" ry="2" transform="rotate(90 332 378.584)" fill="black" fill-opacity="0.4"/>
<ellipse cx="332" cy="549.753" rx="2.01375" ry="2" transform="rotate(90 332 549.753)" fill="black" fill-opacity="0.4"/>
<ellipse cx="332" cy="104.715" rx="2.01375" ry="2" transform="rotate(90 332 104.715)" fill="black" fill-opacity="0.4"/>
<ellipse cx="332" cy="241.649" rx="2.01375" ry="2" transform="rotate(90 332 241.649)" fill="black" fill-opacity="0.4"/>
<ellipse cx="332" cy="412.818" rx="2.01375" ry="2" transform="rotate(90 332 412.818)" fill="black" fill-opacity="0.4"/>
<ellipse cx="332" cy="447.052" rx="2.01375" ry="2" transform="rotate(90 332 447.052)" fill="black" fill-opacity="0.4"/>
<ellipse cx="332" cy="583.986" rx="2.01375" ry="2" transform="rotate(90 332 583.986)" fill="black" fill-opacity="0.4"/>
<ellipse cx="200" cy="2.01375" rx="2.01375" ry="2" transform="rotate(90 200 2.01375)" fill="black" fill-opacity="0.4"/>
<ellipse cx="200" cy="138.949" rx="2.01375" ry="2" transform="rotate(90 200 138.949)" fill="black" fill-opacity="0.4"/>
<ellipse cx="200" cy="275.883" rx="2.01375" ry="2" transform="rotate(90 200 275.883)" fill="black" fill-opacity="0.4"/>
<ellipse cx="200" cy="481.285" rx="2.01375" ry="2" transform="rotate(90 200 481.285)" fill="black" fill-opacity="0.4"/>
<ellipse cx="200" cy="36.2474" rx="2.01375" ry="2" transform="rotate(90 200 36.2474)" fill="black" fill-opacity="0.4"/>
<ellipse cx="200" cy="173.182" rx="2.01375" ry="2" transform="rotate(90 200 173.182)" fill="black" fill-opacity="0.4"/>
<ellipse cx="200" cy="310.117" rx="2.01375" ry="2" transform="rotate(90 200 310.117)" fill="black" fill-opacity="0.4"/>
<ellipse cx="200" cy="515.519" rx="2.01375" ry="2" transform="rotate(90 200 515.519)" fill="black" fill-opacity="0.4"/>
<ellipse cx="200" cy="70.481" rx="2.01375" ry="2" transform="rotate(90 200 70.481)" fill="black" fill-opacity="0.4"/>
<ellipse cx="200" cy="207.416" rx="2.01375" ry="2" transform="rotate(90 200 207.416)" fill="black" fill-opacity="0.4"/>
<ellipse cx="200" cy="344.35" rx="2.01375" ry="2" transform="rotate(90 200 344.35)" fill="black" fill-opacity="0.4"/>
<ellipse cx="200" cy="378.584" rx="2.01375" ry="2" transform="rotate(90 200 378.584)" fill="black" fill-opacity="0.4"/>
<ellipse cx="200" cy="549.753" rx="2.01375" ry="2" transform="rotate(90 200 549.753)" fill="black" fill-opacity="0.4"/>
<ellipse cx="200" cy="104.715" rx="2.01375" ry="2" transform="rotate(90 200 104.715)" fill="black" fill-opacity="0.4"/>
<ellipse cx="200" cy="241.649" rx="2.01375" ry="2" transform="rotate(90 200 241.649)" fill="black" fill-opacity="0.4"/>
<ellipse cx="200" cy="412.818" rx="2.01375" ry="2" transform="rotate(90 200 412.818)" fill="black" fill-opacity="0.4"/>
<ellipse cx="200" cy="447.052" rx="2.01375" ry="2" transform="rotate(90 200 447.052)" fill="black" fill-opacity="0.4"/>
<ellipse cx="200" cy="583.986" rx="2.01375" ry="2" transform="rotate(90 200 583.986)" fill="black" fill-opacity="0.4"/>
<ellipse cx="35" cy="2.01375" rx="2.01375" ry="2" transform="rotate(90 35 2.01375)" fill="black" fill-opacity="0.4"/>
<ellipse cx="35" cy="138.949" rx="2.01375" ry="2" transform="rotate(90 35 138.949)" fill="black" fill-opacity="0.4"/>
<ellipse cx="35" cy="275.883" rx="2.01375" ry="2" transform="rotate(90 35 275.883)" fill="black" fill-opacity="0.4"/>
<ellipse cx="35" cy="481.285" rx="2.01375" ry="2" transform="rotate(90 35 481.285)" fill="black" fill-opacity="0.4"/>
<ellipse cx="35" cy="36.2474" rx="2.01375" ry="2" transform="rotate(90 35 36.2474)" fill="black" fill-opacity="0.4"/>
<ellipse cx="35" cy="173.182" rx="2.01375" ry="2" transform="rotate(90 35 173.182)" fill="black" fill-opacity="0.4"/>
<ellipse cx="35" cy="310.117" rx="2.01375" ry="2" transform="rotate(90 35 310.117)" fill="black" fill-opacity="0.4"/>
<ellipse cx="35" cy="515.519" rx="2.01375" ry="2" transform="rotate(90 35 515.519)" fill="black" fill-opacity="0.4"/>
<ellipse cx="35" cy="70.481" rx="2.01375" ry="2" transform="rotate(90 35 70.481)" fill="black" fill-opacity="0.4"/>
<ellipse cx="35" cy="207.416" rx="2.01375" ry="2" transform="rotate(90 35 207.416)" fill="black" fill-opacity="0.4"/>
<ellipse cx="35" cy="344.35" rx="2.01375" ry="2" transform="rotate(90 35 344.35)" fill="black" fill-opacity="0.4"/>
<ellipse cx="35" cy="378.584" rx="2.01375" ry="2" transform="rotate(90 35 378.584)" fill="black" fill-opacity="0.4"/>
<ellipse cx="35" cy="549.753" rx="2.01375" ry="2" transform="rotate(90 35 549.753)" fill="black" fill-opacity="0.4"/>
<ellipse cx="35" cy="104.715" rx="2.01375" ry="2" transform="rotate(90 35 104.715)" fill="black" fill-opacity="0.4"/>
<ellipse cx="35" cy="241.649" rx="2.01375" ry="2" transform="rotate(90 35 241.649)" fill="black" fill-opacity="0.4"/>
<ellipse cx="35" cy="412.818" rx="2.01375" ry="2" transform="rotate(90 35 412.818)" fill="black" fill-opacity="0.4"/>
<ellipse cx="35" cy="447.052" rx="2.01375" ry="2" transform="rotate(90 35 447.052)" fill="black" fill-opacity="0.4"/>
<ellipse cx="35" cy="583.986" rx="2.01375" ry="2" transform="rotate(90 35 583.986)" fill="black" fill-opacity="0.4"/>
<ellipse cx="266" cy="2.01375" rx="2.01375" ry="2" transform="rotate(90 266 2.01375)" fill="black" fill-opacity="0.4"/>
<ellipse cx="266" cy="138.949" rx="2.01375" ry="2" transform="rotate(90 266 138.949)" fill="black" fill-opacity="0.4"/>
<ellipse cx="266" cy="275.883" rx="2.01375" ry="2" transform="rotate(90 266 275.883)" fill="black" fill-opacity="0.4"/>
<ellipse cx="266" cy="481.285" rx="2.01375" ry="2" transform="rotate(90 266 481.285)" fill="black" fill-opacity="0.4"/>
<ellipse cx="266" cy="36.2474" rx="2.01375" ry="2" transform="rotate(90 266 36.2474)" fill="black" fill-opacity="0.4"/>
<ellipse cx="266" cy="173.182" rx="2.01375" ry="2" transform="rotate(90 266 173.182)" fill="black" fill-opacity="0.4"/>
<ellipse cx="266" cy="310.117" rx="2.01375" ry="2" transform="rotate(90 266 310.117)" fill="black" fill-opacity="0.4"/>
<ellipse cx="266" cy="515.519" rx="2.01375" ry="2" transform="rotate(90 266 515.519)" fill="black" fill-opacity="0.4"/>
<ellipse cx="266" cy="70.481" rx="2.01375" ry="2" transform="rotate(90 266 70.481)" fill="black" fill-opacity="0.4"/>
<ellipse cx="266" cy="207.416" rx="2.01375" ry="2" transform="rotate(90 266 207.416)" fill="black" fill-opacity="0.4"/>
<ellipse cx="266" cy="344.35" rx="2.01375" ry="2" transform="rotate(90 266 344.35)" fill="black" fill-opacity="0.4"/>
<ellipse cx="266" cy="378.584" rx="2.01375" ry="2" transform="rotate(90 266 378.584)" fill="black" fill-opacity="0.4"/>
<ellipse cx="266" cy="549.753" rx="2.01375" ry="2" transform="rotate(90 266 549.753)" fill="black" fill-opacity="0.4"/>
<ellipse cx="266" cy="104.715" rx="2.01375" ry="2" transform="rotate(90 266 104.715)" fill="black" fill-opacity="0.4"/>
<ellipse cx="266" cy="241.649" rx="2.01375" ry="2" transform="rotate(90 266 241.649)" fill="black" fill-opacity="0.4"/>
<ellipse cx="266" cy="412.818" rx="2.01375" ry="2" transform="rotate(90 266 412.818)" fill="black" fill-opacity="0.4"/>
<ellipse cx="266" cy="447.052" rx="2.01375" ry="2" transform="rotate(90 266 447.052)" fill="black" fill-opacity="0.4"/>
<ellipse cx="266" cy="583.986" rx="2.01375" ry="2" transform="rotate(90 266 583.986)" fill="black" fill-opacity="0.4"/>
<ellipse cx="101" cy="2.01375" rx="2.01375" ry="2" transform="rotate(90 101 2.01375)" fill="black" fill-opacity="0.4"/>
<ellipse cx="101" cy="138.949" rx="2.01375" ry="2" transform="rotate(90 101 138.949)" fill="black" fill-opacity="0.4"/>
<ellipse cx="101" cy="275.883" rx="2.01375" ry="2" transform="rotate(90 101 275.883)" fill="black" fill-opacity="0.4"/>
<ellipse cx="101" cy="481.285" rx="2.01375" ry="2" transform="rotate(90 101 481.285)" fill="black" fill-opacity="0.4"/>
<ellipse cx="101" cy="36.2474" rx="2.01375" ry="2" transform="rotate(90 101 36.2474)" fill="black" fill-opacity="0.4"/>
<ellipse cx="101" cy="173.182" rx="2.01375" ry="2" transform="rotate(90 101 173.182)" fill="black" fill-opacity="0.4"/>
<ellipse cx="101" cy="310.117" rx="2.01375" ry="2" transform="rotate(90 101 310.117)" fill="black" fill-opacity="0.4"/>
<ellipse cx="101" cy="515.519" rx="2.01375" ry="2" transform="rotate(90 101 515.519)" fill="black" fill-opacity="0.4"/>
<ellipse cx="101" cy="70.481" rx="2.01375" ry="2" transform="rotate(90 101 70.481)" fill="black" fill-opacity="0.4"/>
<ellipse cx="101" cy="207.416" rx="2.01375" ry="2" transform="rotate(90 101 207.416)" fill="black" fill-opacity="0.4"/>
<ellipse cx="101" cy="344.35" rx="2.01375" ry="2" transform="rotate(90 101 344.35)" fill="black" fill-opacity="0.4"/>
<ellipse cx="101" cy="378.584" rx="2.01375" ry="2" transform="rotate(90 101 378.584)" fill="black" fill-opacity="0.4"/>
<ellipse cx="101" cy="549.753" rx="2.01375" ry="2" transform="rotate(90 101 549.753)" fill="black" fill-opacity="0.4"/>
<ellipse cx="101" cy="104.715" rx="2.01375" ry="2" transform="rotate(90 101 104.715)" fill="black" fill-opacity="0.4"/>
<ellipse cx="101" cy="241.649" rx="2.01375" ry="2" transform="rotate(90 101 241.649)" fill="black" fill-opacity="0.4"/>
<ellipse cx="101" cy="412.818" rx="2.01375" ry="2" transform="rotate(90 101 412.818)" fill="black" fill-opacity="0.4"/>
<ellipse cx="101" cy="447.052" rx="2.01375" ry="2" transform="rotate(90 101 447.052)" fill="black" fill-opacity="0.4"/>
<ellipse cx="101" cy="583.986" rx="2.01375" ry="2" transform="rotate(90 101 583.986)" fill="black" fill-opacity="0.4"/>
<ellipse cx="134" cy="2.01375" rx="2.01375" ry="2" transform="rotate(90 134 2.01375)" fill="black" fill-opacity="0.4"/>
<ellipse cx="134" cy="138.949" rx="2.01375" ry="2" transform="rotate(90 134 138.949)" fill="black" fill-opacity="0.4"/>
<ellipse cx="134" cy="275.883" rx="2.01375" ry="2" transform="rotate(90 134 275.883)" fill="black" fill-opacity="0.4"/>
<ellipse cx="134" cy="481.285" rx="2.01375" ry="2" transform="rotate(90 134 481.285)" fill="black" fill-opacity="0.4"/>
<ellipse cx="134" cy="36.2474" rx="2.01375" ry="2" transform="rotate(90 134 36.2474)" fill="black" fill-opacity="0.4"/>
<ellipse cx="134" cy="173.182" rx="2.01375" ry="2" transform="rotate(90 134 173.182)" fill="black" fill-opacity="0.4"/>
<ellipse cx="134" cy="310.117" rx="2.01375" ry="2" transform="rotate(90 134 310.117)" fill="black" fill-opacity="0.4"/>
<ellipse cx="134" cy="515.519" rx="2.01375" ry="2" transform="rotate(90 134 515.519)" fill="black" fill-opacity="0.4"/>
<ellipse cx="134" cy="70.481" rx="2.01375" ry="2" transform="rotate(90 134 70.481)" fill="black" fill-opacity="0.4"/>
<ellipse cx="134" cy="207.416" rx="2.01375" ry="2" transform="rotate(90 134 207.416)" fill="black" fill-opacity="0.4"/>
<ellipse cx="134" cy="344.35" rx="2.01375" ry="2" transform="rotate(90 134 344.35)" fill="black" fill-opacity="0.4"/>
<ellipse cx="134" cy="378.584" rx="2.01375" ry="2" transform="rotate(90 134 378.584)" fill="black" fill-opacity="0.4"/>
<ellipse cx="134" cy="549.753" rx="2.01375" ry="2" transform="rotate(90 134 549.753)" fill="black" fill-opacity="0.4"/>
<ellipse cx="134" cy="104.715" rx="2.01375" ry="2" transform="rotate(90 134 104.715)" fill="black" fill-opacity="0.4"/>
<ellipse cx="134" cy="241.649" rx="2.01375" ry="2" transform="rotate(90 134 241.649)" fill="black" fill-opacity="0.4"/>
<ellipse cx="134" cy="412.818" rx="2.01375" ry="2" transform="rotate(90 134 412.818)" fill="black" fill-opacity="0.4"/>
<ellipse cx="134" cy="447.052" rx="2.01375" ry="2" transform="rotate(90 134 447.052)" fill="black" fill-opacity="0.4"/>
<ellipse cx="134" cy="583.986" rx="2.01375" ry="2" transform="rotate(90 134 583.986)" fill="black" fill-opacity="0.4"/>
</svg>
