<svg width="100" height="25" viewBox="0 0 100 25" fill="none" xmlns="http://www.w3.org/2000/svg">
    <path fill-rule="evenodd" clip-rule="evenodd" d="M50.0996 5.89737C52.2336 5.89737 54.1083 6.98056 55.2451 8.60534V1.08319C53.6895 0.401181 51.9344 0 50.0996 0C43.2388 0 37.6744 5.39589 37.6744 12.0555C37.6744 18.7151 43.2388 24.111 50.0996 24.111C51.9344 24.111 53.6695 23.7299 55.2451 23.0278V18.618C56.5099 21.9412 60.0348 24.3316 64.1792 24.3316C68.7233 24.3316 72.5227 21.4578 73.4146 17.6317V23.6697H79.0388V14.5027C79.0388 13.1387 80.1358 12.0555 81.472 12.0555C82.8282 12.0555 83.9052 13.1587 83.9052 14.5027V23.6697H89.5294V14.5027C89.5294 13.7605 89.8684 13.0785 90.387 12.6372C90.8058 12.2761 91.3443 12.0555 91.9426 12.0555C93.2988 12.0555 94.3758 13.1587 94.3758 14.5027V23.6496H100V13.2991C100 10.7717 98.3247 8.60532 96.0311 7.90326C95.4926 7.74278 94.9143 7.64249 94.3159 7.64249C92.2817 7.64249 90.5066 8.72568 89.5094 10.3304C89.4895 10.3705 89.4696 10.4056 89.4496 10.4407C89.4297 10.4758 89.4097 10.5109 89.3898 10.5511C88.4724 9.26727 87.1361 8.30444 85.5805 7.90326C85.042 7.76284 84.4836 7.68261 83.9052 7.68261C81.9906 7.68261 80.2554 8.48497 79.0388 9.78881V7.8832H73.4146V14.1533C72.5233 10.3415 68.7293 7.48199 64.1792 7.48199C58.9738 7.48199 54.7457 11.2531 54.7457 15.9068C54.7457 16.056 54.75 16.2043 54.7586 16.3516C53.6192 17.6356 51.9493 18.4343 50.0996 18.4343C46.6492 18.4343 43.8571 15.626 43.8571 12.1558C43.8571 8.68558 46.6492 5.89737 50.0996 5.89737ZM2.1739 0.541548H22.9954L11.0889 18.6348H21.719V23.6295H0L12.0063 5.4159H2.13401L2.1739 0.541548ZM27.6817 3.14928C22.4763 3.14928 18.2482 6.92038 18.2482 11.5741C18.2482 16.2278 22.4763 19.9989 27.6817 19.9989C32.8871 19.9989 37.1152 16.2278 37.1152 11.5741C37.1152 6.92038 32.907 3.14928 27.6817 3.14928ZM27.6817 15.285C25.6474 15.285 23.992 13.6201 23.992 11.5741C23.992 9.52806 25.6474 7.88322 27.6817 7.88322C29.716 7.88322 31.3713 9.54812 31.3713 11.5941C31.3713 13.6402 29.716 15.285 27.6817 15.285ZM60.4895 15.8868C60.4895 17.9328 62.1449 19.5977 64.1792 19.5977C66.2134 19.5977 67.8688 17.9328 67.8688 15.8868C67.8688 13.8407 66.2134 12.1758 64.1792 12.1758C62.1449 12.1758 60.4895 13.8407 60.4895 15.8868Z" fill="white" />
</svg>
